<svg width="98" height="138" viewBox="0 0 98 138" fill="none" xmlns="http://www.w3.org/2000/svg">
<path d="M30.8814 1.32167C23.6902 3.53733 17.1885 13.7088 16.7698 22.9398C16.3557 32.0707 22.1818 33.9206 22.9451 43.6436C23.7521 53.9241 17.8551 59.7085 13.5773 70.3168C7.17557 86.1921 4.72711 112.059 15.8272 125.942C28.7229 142.071 58.0172 139.663 66.8888 125.72C74.9431 113.062 61.3307 98.4929 70.372 80.3679C77.8814 65.3142 91.3202 67.2481 96.2442 52.3428C99.5347 42.3824 97.499 29.5156 91.4384 22.1019C82.1332 10.7193 70.7325 21.2343 49.6663 9.66627C40.2615 4.50183 37.0807 -0.588418 30.8814 1.32167Z" fill="#EEF8FF"/>
<path d="M56.9286 44.5123C57.7529 46.8956 60.3955 57.415 60.634 59.8225C60.8993 62.4988 56.1726 63.1211 53.562 62.4748C48.8701 61.3135 46.3578 60.6968 39.7662 60.6356C39.7662 60.6356 17.5537 62.4133 31.2815 32.2019C32.5264 29.4694 37.5191 27.3447 39.6367 27.3447L42.8368 32.8111L49.0911 29.1196C51.4893 27.469 53.8604 27.5234 55.988 28.6387" fill="#A490F4"/>
<path d="M56.9286 44.5123C57.7529 46.8956 60.3955 57.415 60.634 59.8225C60.8993 62.4988 56.1726 63.1211 53.562 62.4748C48.8701 61.3135 46.3578 60.6968 39.7662 60.6356C39.7662 60.6356 17.5537 62.4134 31.2815 32.2019C32.5264 29.4694 37.5191 27.3447 39.6367 27.3447L42.8368 32.8111L49.0911 29.1196C51.4893 27.469 53.8604 27.5234 55.988 28.6387" stroke="black" stroke-width="0.6474" stroke-miterlimit="10" stroke-linecap="round"/>
<path d="M57.7616 64.8804C55.7356 76.8075 56.9271 99.4294 58.8602 113.368" stroke="black" stroke-width="0.6474" stroke-miterlimit="10" stroke-linecap="round"/>
<path d="M44.1652 75.4355C44.0371 89.3011 45.082 103.399 44.6831 116.949" stroke="black" stroke-width="0.6474" stroke-miterlimit="10" stroke-linecap="round"/>
<path d="M33.3818 68.2554C32.7409 82.2508 35.3946 95.5942 35.8403 109.263" stroke="black" stroke-width="0.6474" stroke-miterlimit="10" stroke-linecap="round"/>
<path d="M34.1801 119.533L32.9987 120.572L27.7158 122.949C26.7899 123.366 26.3095 124.435 26.6816 125.38C26.8074 125.699 27.025 126.01 27.3815 126.269" stroke="black" stroke-width="0.6474" stroke-miterlimit="10" stroke-linecap="round"/>
<path d="M45.9071 124.595L45.4988 121.366" stroke="black" stroke-width="0.6474" stroke-miterlimit="10" stroke-linecap="round"/>
<path d="M46.1929 127.431L45.907 124.595L27.0167 126.302L27.2243 128.199C27.2645 128.644 27.6577 128.972 28.1028 128.932L46.1929 127.431Z" stroke="black" stroke-width="0.6474" stroke-miterlimit="10" stroke-linecap="round"/>
<path d="M32.9987 120.572C32.9987 120.572 35.1189 122.189 36.0979 121.421" stroke="black" stroke-width="0.6474" stroke-miterlimit="10" stroke-linecap="round"/>
<path d="M36.0978 113.301C36.0978 115.991 32.2118 116.555 32.3939 117.501C32.8917 120.091 38.2483 120.913 40.1589 121.206C41.9329 121.478 44.5804 121.658 47.8326 121.031" stroke="black" stroke-width="0.6474" stroke-miterlimit="10" stroke-linecap="round"/>
<path d="M58.3035 123.602L58.4195 126.854H39.8183C39.4867 126.563 39.298 126.235 39.2016 125.905C38.9159 124.931 39.4906 123.909 40.4503 123.577L45.9257 121.686L47.1957 120.757" fill="#EEF8FF"/>
<path d="M58.3035 123.602L58.4195 126.854H39.8183C39.4867 126.563 39.298 126.235 39.2016 125.905C38.9159 124.931 39.4906 123.909 40.4503 123.577L45.9257 121.686L47.1957 120.757" stroke="black" stroke-width="0.6474" stroke-miterlimit="10" stroke-linecap="round"/>
<path d="M40.2609 129.545C39.8142 129.545 39.4521 129.182 39.4521 128.736V126.854H39.8182H58.4193V128.736C58.4193 129.182 58.0572 129.545 57.6105 129.545H40.2609Z" fill="#EEF8FF"/>
<path d="M40.2609 129.545C39.8142 129.545 39.4521 129.182 39.4521 128.736V126.854H39.8182H58.4193V128.736C58.4193 129.182 58.0572 129.545 57.6105 129.545H40.2609Z" stroke="black" stroke-width="0.6474" stroke-miterlimit="10" stroke-linecap="round"/>
<path d="M45.9256 121.686C45.9256 121.686 47.8916 123.487 48.9357 122.81L45.9256 121.686Z" fill="#EEF8FF"/>
<path d="M45.9256 121.686C45.9256 121.686 47.8916 123.487 48.9357 122.81" stroke="black" stroke-width="0.6474" stroke-miterlimit="10" stroke-linecap="round"/>
<path d="M44.8623 115.474C44.1575 116.195 43.5614 117.096 43.6575 118.055C43.9202 120.678 49.1812 121.979 51.0578 122.444C52.7999 122.874 55.4205 123.292 58.716 122.96" fill="#EEF8FF"/>
<path d="M44.8623 115.474C44.1575 116.195 43.5614 117.096 43.6575 118.055C43.9202 120.678 49.1812 121.979 51.0578 122.444C52.7999 122.874 55.4205 123.292 58.716 122.96" stroke="black" stroke-width="0.6474" stroke-miterlimit="10" stroke-linecap="round"/>
<path d="M45.1808 52.9918C45.5804 55.6947 46.2416 57.3133 46.9166 60.4542C36.5154 61.9404 29.4243 62.4444 18.3774 63.6449C17.8327 60.1899 18.139 58.1947 17.3899 54.9446" fill="#DDBC8C"/>
<path d="M45.1808 52.9918C45.5804 55.6947 46.2416 57.3133 46.9166 60.4542C36.5154 61.9404 29.4243 62.4444 18.3774 63.6449C17.8327 60.1899 18.139 58.1947 17.3899 54.9446" stroke="black" stroke-width="0.6474" stroke-miterlimit="10" stroke-linecap="round"/>
<path d="M16.7679 54.9656C16.1483 58.6488 16.3703 60.3575 15.9466 63.7752C9.56904 61.8027 8.34238 60.6679 1.17625 58.292C1.94087 54.5928 1.73119 55.2253 2.29026 51.7627" fill="#DDBC8C"/>
<path d="M16.7679 54.9656C16.1483 58.6488 16.3703 60.3575 15.9466 63.7752C9.56904 61.8027 8.34238 60.6679 1.17625 58.292C1.94087 54.5928 1.73119 55.2253 2.29026 51.7627" stroke="black" stroke-width="0.6474" stroke-miterlimit="10" stroke-linecap="round"/>
<path d="M21.5151 29.7476C29.9667 31.494 35.9649 30.2524 45.5416 31.0798C43.9895 38.106 43.5889 43.9103 45.2478 53.3802C36.5602 55.2632 25.6574 54.9856 16.7679 54.9658C11.1471 53.6588 7.91109 53.0699 2.2903 51.7629C2.95012 43.4472 2.7969 35.9201 1.78187 30.5107C7.43271 29.8776 15.8643 30.3808 21.5151 29.7476Z" fill="#DDBC8C"/>
<path d="M21.5151 29.7476C29.9667 31.494 35.9649 30.2524 45.5416 31.0798C43.9895 38.106 43.5889 43.9103 45.2478 53.3802C36.5602 55.2632 25.6574 54.9856 16.7679 54.9658C11.1471 53.6588 7.91109 53.0699 2.2903 51.7629C2.95012 43.4472 2.7969 35.9201 1.78187 30.5107C7.43271 29.8776 15.8643 30.3808 21.5151 29.7476Z" stroke="black" stroke-width="0.6474" stroke-miterlimit="10" stroke-linecap="round"/>
<path d="M1.78165 30.5107C7.21721 31.4777 11.4673 32.3725 16.5392 32.9526C16.6182 41.0957 16.7496 46.593 16.8286 54.7361" fill="#DDBC8C"/>
<path d="M1.78165 30.5107C7.21721 31.4777 11.4673 32.3725 16.5392 32.9526C16.6182 41.0957 16.7496 46.593 16.8286 54.7361" stroke="black" stroke-width="0.6474" stroke-miterlimit="10" stroke-linecap="round"/>
<path d="M16.5841 33.0083C25.635 32.5269 36.4907 31.5605 45.5414 31.0791" stroke="black" stroke-width="0.6474" stroke-miterlimit="10" stroke-linecap="round"/>
<path d="M8.99933 31.8245C8.99933 31.8245 10.0632 53.4073 9.38056 53.2487" stroke="black" stroke-width="0.6474" stroke-miterlimit="10" stroke-linecap="round"/>
<path d="M10.0355 48.1503L8.66692 48.1081C9.2144 42.8514 9.01325 36.8829 9.01325 36.8829L10.3817 36.9251C10.3817 36.9251 10.3929 42.8344 10.0355 48.1503Z" fill="white"/>
<path d="M10.0355 48.1503L8.66692 48.1081C9.2144 42.8514 9.01325 36.8829 9.01325 36.8829L10.3817 36.9251C10.3817 36.9251 10.3929 42.8344 10.0355 48.1503Z" stroke="black" stroke-width="0.6474" stroke-miterlimit="10" stroke-linecap="round"/>
<path d="M57.3885 25.9584C68.5566 29.5885 68.8695 49.2185 58.292 50.0222C56.051 50.1893 53.7761 49.2442 51.5296 49.3309" fill="#A490F4"/>
<path d="M57.3885 25.9584C68.5566 29.5885 68.8695 49.2185 58.292 50.0222C56.051 50.1893 53.7761 49.2442 51.5296 49.3309" stroke="black" stroke-width="0.6474" stroke-miterlimit="10" stroke-linecap="round"/>
<path d="M42.3634 42.3363C42.2486 41.1117 43.866 40.2709 44.9888 40.7731C46.1115 41.2755 46.6482 42.6093 46.6561 43.8393C46.664 45.0691 46.261 46.2591 46.0215 47.4656C45.7819 48.6721 45.7254 50.0009 46.0577 51.2598C45.4577 49.9076 44.6109 47.8076 44.0108 46.4554" fill="#7B5EF2"/>
<path d="M42.3634 42.3363C42.2486 41.1117 43.866 40.2709 44.9888 40.7731C46.1115 41.2755 46.6482 42.6093 46.6561 43.8393C46.664 45.0691 46.261 46.2591 46.0215 47.4656C45.7819 48.6721 45.7254 50.0009 46.0577 51.2598C45.4577 49.9076 44.6109 47.8076 44.0108 46.4554" stroke="black" stroke-width="0.6474" stroke-miterlimit="10" stroke-linecap="round"/>
<path d="M44.9894 42.2394L39.1238 41.7975L36.8525 40.6042C36.1395 40.2297 35.303 40.8234 35.4215 41.62C35.4215 41.62 31.1182 40.4174 30.9487 43.5478C30.8134 46.044 34.5219 49.7882 38.2993 45.3854L45.7813 46.4386" fill="#EEF8FF"/>
<path d="M44.9894 42.2394L39.1238 41.7975L36.8525 40.6042C36.1395 40.2297 35.303 40.8234 35.4215 41.62C35.4215 41.62 31.1182 40.4174 30.9487 43.5478C30.8134 46.044 34.5219 49.7882 38.2993 45.3854L45.7813 46.4386" stroke="black" stroke-width="0.6474" stroke-miterlimit="10" stroke-linecap="round"/>
<path d="M43.4022 42.1201L48.5065 42.5045L48.2889 46.7917L45.3014 46.3712" fill="#E1EBFF"/>
<path d="M43.4022 42.1201L48.5065 42.5045L48.2889 46.7917L45.3014 46.3712" stroke="black" stroke-width="0.6474" stroke-miterlimit="10" stroke-linecap="square"/>
<path d="M43.6344 40.7241C44.0771 40.5853 44.5677 40.5847 44.9887 40.773C46.1115 41.2753 46.6481 42.6092 46.6561 43.8392C46.6641 45.0691 46.261 46.259 46.0214 47.4655C45.782 48.6719 45.7253 50.0008 46.0577 51.2598L46.0204 51.1104C46.2831 52.4531 49.4259 52.9519 51.0487 54.0892C51.2644 49.3744 53.062 43.9981 49.7983 39.8505" fill="#A490F4"/>
<path d="M43.6344 40.7241C44.0771 40.5853 44.5677 40.5847 44.9887 40.773C46.1115 41.2753 46.6481 42.6092 46.6561 43.8392C46.6641 45.0691 46.261 46.259 46.0214 47.4655C45.782 48.6719 45.7253 50.0008 46.0577 51.2598L46.0204 51.1104C46.2831 52.4531 49.4259 52.9519 51.0487 54.0892C51.2644 49.3744 53.062 43.9981 49.7983 39.8505" stroke="black" stroke-width="0.6474" stroke-miterlimit="10" stroke-linecap="round"/>
<path d="M43.209 40.8724C46.2982 39.4248 50.0434 39.6415 53.1215 40.2708C53.1351 38.0936 52.9397 37.3841 53.1724 34.0155" stroke="black" stroke-width="0.6474" stroke-miterlimit="10" stroke-linecap="round"/>
<path d="M49.841 49.853C49.9085 50.289 49.6098 50.6971 49.1739 50.7646C48.7379 50.8321 48.3299 50.5334 48.2624 50.0975C48.1949 49.6615 48.4935 49.2534 48.9294 49.1859C49.3654 49.1184 49.7735 49.4171 49.841 49.853Z" stroke="black" stroke-width="0.6474" stroke-miterlimit="10" stroke-linecap="round"/>
<path d="M46.6116 13.4055C47.5675 14.4099 47.6859 14.6961 47.523 16.51C47.244 19.6159 47.2904 22.0962 48.269 25.057C49.2478 28.0178 51.3319 30.7354 54.2387 31.8644C57.1456 32.9933 60.8618 32.187 62.5913 29.5921C64.3207 26.9972 63.2726 22.8265 60.3255 21.8071C57.1765 20.718 55.6199 17.2704 55.6743 13.9388C55.6866 13.189 55.1005 12.4737 54.3629 12.3383C53.6252 12.2028 46.6116 13.4055 46.6116 13.4055Z" fill="#EF86D4"/>
<path d="M46.6116 13.4055C47.5675 14.4099 47.6859 14.6961 47.523 16.51C47.244 19.6159 47.2904 22.0962 48.269 25.057C49.2478 28.0178 51.3319 30.7354 54.2387 31.8644C57.1456 32.9933 60.8618 32.187 62.5913 29.5921C64.3207 26.9972 63.2726 22.8265 60.3255 21.8071C57.1765 20.718 55.6199 17.2704 55.6743 13.9388C55.6866 13.189 55.1005 12.4737 54.3629 12.3383C53.6252 12.2028 46.6116 13.4055 46.6116 13.4055Z" stroke="black" stroke-width="0.6474" stroke-miterlimit="10" stroke-linecap="round"/>
<path d="M43.4944 22.6137C43.3923 24.2971 42.9143 26.7215 42.1355 27.6745" stroke="black" stroke-width="0.6474" stroke-miterlimit="10" stroke-linecap="round"/>
<path d="M39.0398 15.9189C39.4113 17.5908 39.3652 17.3835 39.7367 19.0554C40.1755 21.0304 42.1007 22.568 44.1237 22.5593C46.1469 22.5505 48.0588 20.9964 48.4807 19.0177" stroke="black" stroke-width="0.6474" stroke-miterlimit="10" stroke-linecap="round"/>
<path d="M34.186 12.6086L39.7414 10.9274C40.1984 7.34261 43.8261 4.4743 47.4197 4.85634C51.0133 5.23839 53.9569 8.80535 53.65 12.4061C45.4903 14.87 41.1398 14.7716 38.6019 14.1193C35.8429 13.4101 35.2261 12.0464 34.186 12.6086C33.4134 13.0263 33.2305 14.1529 33.6689 14.9139C34.1071 15.6748 34.9998 16.0831 35.8744 16.1616C36.749 16.2403 38.151 15.9662 39.0062 15.7661L38.6019 14.1193" fill="#A490F4"/>
<path d="M34.186 12.6086L39.7414 10.9274C40.1984 7.34261 43.8261 4.4743 47.4197 4.85634C51.0133 5.23839 53.9569 8.80535 53.65 12.4061C45.4903 14.87 41.1398 14.7716 38.6019 14.1193M34.186 12.6086C35.2261 12.0464 35.8429 13.4101 38.6019 14.1193M34.186 12.6086C33.4134 13.0263 33.2305 14.1529 33.6689 14.9139C34.1071 15.6748 34.9998 16.0831 35.8744 16.1616C36.749 16.2403 38.151 15.9662 39.0062 15.7661L38.6019 14.1193" stroke="black" stroke-width="0.6474" stroke-miterlimit="10" stroke-linecap="round"/>
<path d="M38.9647 14.2059C38.8397 14.1784 38.7189 14.1495 38.6019 14.1195C35.8429 13.4103 35.226 12.0465 34.1859 12.6088C33.4134 13.0265 33.2305 14.153 33.6687 14.9141C34.1071 15.675 34.9997 16.0833 35.8743 16.1618C36.7489 16.2405 38.151 15.9664 39.0061 15.7662L38.6019 14.1195" fill="#7B5EF2"/>
<path d="M38.9647 14.2059C38.8397 14.1784 38.7189 14.1495 38.6019 14.1195M38.6019 14.1195C35.8429 13.4103 35.226 12.0465 34.1859 12.6088C33.4134 13.0265 33.2305 14.153 33.6687 14.9141C34.1071 15.675 34.9997 16.0833 35.8743 16.1618C36.7489 16.2405 38.151 15.9664 39.0061 15.7662L38.6019 14.1195Z" stroke="black" stroke-width="0.6474" stroke-miterlimit="10" stroke-linecap="round"/>
<path d="M40.287 17.2017C40.287 17.2017 41.2826 17.7113 42.0283 17.401L40.287 17.2017Z" fill="#7B5EF2"/>
<path d="M40.287 17.2017C40.287 17.2017 41.2826 17.7113 42.0283 17.401" stroke="black" stroke-width="0.6474" stroke-miterlimit="10" stroke-linecap="round"/>
<path d="M43.2387 17.4291C43.2387 17.4291 44.2316 17.6798 44.9773 17.3696L43.2387 17.4291Z" fill="#7B5EF2"/>
<path d="M43.2387 17.4291C43.2387 17.4291 44.2316 17.6798 44.9773 17.3696" stroke="black" stroke-width="0.6474" stroke-miterlimit="10" stroke-linecap="round"/>
<path d="M44.0094 8.21705C43.7665 8.17439 43.5683 8.19873 43.3913 8.38212C43.2591 8.51907 43.164 8.7187 43.3309 8.86742C43.5612 9.07245 44.0538 9.03559 44.1275 9.41461C44.1738 9.65225 43.8918 9.68394 43.7242 9.63765C43.5396 9.58661 43.4162 9.45 43.3369 9.28327C43.3088 9.22426 43.0126 9.45045 43.0652 9.56088C43.3276 10.1125 44.0434 10.019 44.3424 9.54923C44.4856 9.32411 44.4345 9.06775 44.23 8.89701C44.1192 8.80455 43.9776 8.75644 43.8457 8.70343C43.7959 8.68349 43.5876 8.63659 43.5771 8.56444C43.5607 8.45131 43.6757 8.49349 43.7738 8.51072C43.8801 8.5293 44.0998 8.23294 44.0094 8.21705Z" fill="white"/>
<path d="M42.9426 8.24288L42.5469 8.24701C42.5169 8.24732 42.4836 8.26748 42.4595 8.28224C42.4179 8.30779 42.3766 8.34111 42.3425 8.37578C42.3161 8.40273 42.2833 8.43324 42.2695 8.469C42.2642 8.48239 42.2537 8.51163 42.28 8.51136L42.6756 8.50723C42.7057 8.50692 42.739 8.48689 42.7632 8.472C42.8046 8.44658 42.846 8.41313 42.88 8.37846C42.9064 8.35151 42.9393 8.32087 42.9531 8.28524C42.9583 8.27172 42.9689 8.24261 42.9426 8.24288Z" fill="white"/>
<path d="M42.6659 8.82322L41.7332 8.83295C41.6593 8.83373 41.5772 8.91253 41.5289 8.96172C41.5179 8.97285 41.4093 9.0979 41.4664 9.0973L42.399 9.08757C42.473 9.0868 42.5551 9.00799 42.6034 8.9588C42.6143 8.94768 42.723 8.82263 42.6659 8.82322Z" fill="white"/>
<path d="M42.7459 9.48945L42.2089 9.49506C42.1789 9.49537 42.1456 9.51553 42.1214 9.53028C42.08 9.55584 42.0387 9.58916 42.0046 9.62383C41.9782 9.65078 41.9453 9.68129 41.9315 9.71704C41.9263 9.73044 41.9157 9.75968 41.942 9.75941L42.4789 9.7538C42.509 9.75349 42.5423 9.73346 42.5665 9.71858C42.6079 9.69302 42.6493 9.6597 42.6834 9.6249C42.7097 9.59808 42.7426 9.56744 42.7565 9.53182C42.7616 9.5183 42.7722 9.48918 42.7459 9.48945Z" fill="white"/>
</svg>
