<svg width="44" height="44" viewBox="0 0 44 44" fill="none" xmlns="http://www.w3.org/2000/svg">
<path d="M22 24.75C28.832 24.75 34.375 19.207 34.375 12.375C34.375 5.54297 28.832 0 22 0C15.168 0 9.625 5.54297 9.625 12.375C9.625 19.207 15.168 24.75 22 24.75ZM33 27.5H28.2648C26.357 28.3766 24.2344 28.875 22 28.875C19.7656 28.875 17.6516 28.3766 15.7352 27.5H11C4.92422 27.5 0 32.4242 0 38.5V39.875C0 42.1523 1.84766 44 4.125 44H39.875C42.1523 44 44 42.1523 44 39.875V38.5C44 32.4242 39.0758 27.5 33 27.5Z" fill="#E2E2E2"/>
</svg>
