<svg width="26" height="32" viewBox="0 0 26 32" fill="none" xmlns="http://www.w3.org/2000/svg">
<path d="M20.7959 32H5.20329C2.33454 32 0.000488281 30.0326 0.000488281 27.6138V10.0224C0.000488281 9.6766 0.336242 9.39355 0.746417 9.39355H7.42539C7.83557 9.39355 8.17132 9.67661 8.17132 10.0224V11.5856C8.17132 12.1036 8.67103 12.5249 9.28548 12.5249C9.89993 12.5249 10.3996 12.1036 10.3996 11.5856V10.0226C10.3996 9.67685 10.7354 9.3938 11.1456 9.3938H25.2562C25.6664 9.3938 25.999 9.67426 25.999 10.0201V27.6139C25.999 30.0324 23.6653 32.0001 20.7962 32.0001L20.7959 32ZM1.48583 10.646V27.6142C1.48583 29.3421 3.15339 30.7479 5.20293 30.7479H20.7955C22.845 30.7479 24.5126 29.3421 24.5126 27.6142V10.646H11.8847V11.5853C11.8847 12.794 10.7185 13.7771 9.28484 13.7771C7.85114 13.7771 6.68498 12.794 6.68498 11.5853V10.646H1.48583Z" fill="#F7941D"/>
<path d="M7.42531 10.6462H0.748265C0.492534 10.6462 0.252467 10.5342 0.11649 10.3516C-0.0194877 10.169 -0.0346014 9.93786 0.0764792 9.744C0.0809559 9.73645 0.0689248 9.7565 3.79187 3.47903C3.91749 3.26721 4.17714 3.13135 4.45918 3.13135H7.42864C7.83882 3.13135 8.17149 3.41181 8.17149 3.7576V10.0171C8.17121 10.3632 7.83545 10.646 7.42527 10.646L7.42531 10.6462ZM1.94523 9.39394H6.68582V4.38408H4.91641L1.94523 9.39394Z" fill="#F7941D"/>
<path d="M25.2562 10.6462H11.1463C10.7361 10.6462 10.4003 10.3631 10.4003 10.0173V3.7602C10.4003 3.4144 10.7361 3.13135 11.1463 3.13135H14.8541C15.2643 3.13135 15.6001 3.4144 15.6001 3.7602V5.32315C15.6001 5.84114 16.0998 6.26244 16.7142 6.26244C17.3287 6.26244 17.8284 5.84116 17.8284 5.32315V3.7602C17.8284 3.4144 18.1641 3.13135 18.5743 3.13135H21.5407C21.8227 3.13135 22.0821 3.26721 22.2077 3.47903L25.9209 9.73977C26.1674 10.1556 25.8081 10.646 25.2564 10.646L25.2562 10.6462ZM11.8855 9.3939H24.0542L21.0831 4.38404H19.3137V5.32333C19.3137 6.532 18.1476 7.51513 16.7139 7.51513C15.2802 7.51513 14.114 6.532 14.114 5.32333V4.38404H11.8857L11.8855 9.3939Z" fill="#F7941D"/>
<path d="M20.7988 31.9381H5.19972C2.33269 31.9381 0 29.9716 0 27.5545C0 27.2087 0.332674 26.9282 0.742849 26.9282H25.2552C25.6654 26.9282 25.998 27.2087 25.998 27.5545C25.998 29.9715 23.6654 31.9381 20.7983 31.9381H20.7988ZM1.56033 28.1807C1.90532 29.6081 3.40617 30.6855 5.19965 30.6855H20.7987C22.5922 30.6855 24.093 29.608 24.438 28.1807H1.56033Z" fill="#F7941D"/>
<path d="M9.28537 13.7769C7.85168 13.7769 6.68551 12.7938 6.68551 11.5851V4.38354H4.13099C2.69873 4.38354 1.51236 3.41877 1.48636 2.23305C1.45922 1.00034 2.63405 0 4.08565 0H21.8679C23.3001 0 24.4865 0.964775 24.5125 2.1505C24.5396 3.38296 23.3648 4.38336 21.9132 4.38336H19.3134V5.32266C19.3134 6.53133 18.1472 7.51446 16.7135 7.51446C15.2798 7.51446 14.1136 6.53133 14.1136 5.32266V4.38336H11.8854V11.5849C11.8851 12.7938 10.7189 13.7769 9.28552 13.7769L9.28537 13.7769ZM4.08565 1.25239C3.46395 1.25239 2.96002 1.68051 2.97149 2.2098C2.98268 2.71788 3.50254 3.13116 4.1307 3.13116H7.42807C7.83825 3.13116 8.17092 3.41161 8.17092 3.75741V11.5851C8.17092 12.1031 8.67064 12.5244 9.28509 12.5244C9.89954 12.5244 10.3993 12.1032 10.3993 11.5851L10.3995 3.75983C10.3995 3.41402 10.7353 3.13097 11.1455 3.13097H14.8533C15.2635 3.13097 15.5993 3.41403 15.5993 3.75983V5.32278C15.5993 5.84077 16.099 6.26207 16.7134 6.26207C17.3279 6.26207 17.8276 5.84078 17.8276 5.32278V3.75983C17.8276 3.41402 18.1633 3.13097 18.5735 3.13097H21.9131C22.5348 3.13097 23.0388 2.70285 23.027 2.17375C23.0158 1.66566 22.496 1.25239 21.8678 1.25239H4.08565Z" fill="#F7941D"/>
<path d="M15.1545 21.5272L12.6288 20.2978C12.3991 20.186 12.2575 19.9791 12.2575 19.7555V17.2969C12.2575 17.0733 12.3991 16.8665 12.6288 16.7546L15.1545 15.5253C15.3842 15.4135 15.6674 15.4135 15.8974 15.5253L18.4231 16.7546C18.6528 16.8665 18.7944 17.0733 18.7944 17.2969V19.7555C18.7944 19.9791 18.6528 20.186 18.4231 20.2978L15.8974 21.5272C15.6677 21.639 15.3842 21.6392 15.1545 21.5272ZM13.743 19.3941L15.5258 20.2619L17.3087 19.3941V17.6586L15.5258 16.7908L13.743 17.6586V19.3941Z" fill="#F7941D"/>
<path d="M12.6282 25.2157L10.1025 23.9863C9.87278 23.8745 9.7312 23.6676 9.7312 23.444V20.9854C9.7312 20.7618 9.87278 20.5549 10.1025 20.4431L12.6282 19.2137C12.8579 19.1019 13.1411 19.1019 13.3711 19.2137L15.8968 20.4431C16.1265 20.5549 16.2681 20.7618 16.2681 20.9854V23.444C16.2681 23.6676 16.1265 23.8745 15.8968 23.9863L13.3711 25.2157C13.1414 25.3275 12.8579 25.3277 12.6282 25.2157ZM11.2169 23.0826L12.9998 23.9504L14.7827 23.0826V21.347L12.9998 20.4792L11.2169 21.347V23.0826Z" fill="#F7941D"/>
<path d="M10.1019 21.5272L7.57622 20.2978C7.34651 20.186 7.20493 19.9791 7.20493 19.7555L7.20465 17.2969C7.20465 17.0733 7.34623 16.8665 7.57594 16.7546L10.1017 15.5253C10.3314 15.4135 10.6145 15.4135 10.8445 15.5253L13.3702 16.7546C13.6 16.8665 13.7415 17.0733 13.7415 17.2969V19.7555C13.7415 19.9791 13.6 20.186 13.3702 20.2978L10.8445 21.5272C10.6151 21.639 10.3316 21.6392 10.1019 21.5272ZM8.69038 19.3941L10.4733 20.2619L12.2561 19.3941V17.6586L10.4733 16.7908L8.69038 17.6586V19.3941Z" fill="#F7941D"/>
</svg>
