<svg width="24" height="24" viewBox="0 0 24 24" fill="none" xmlns="http://www.w3.org/2000/svg">
<g clip-path="url(#clip0_26_6374)">
<path d="M13.9636 4.8335C13.0518 4.83348 12.317 4.83347 11.739 4.91118C11.1389 4.99186 10.6337 5.16445 10.2324 5.56573C9.88242 5.91568 9.7056 6.34573 9.61277 6.85106C9.52258 7.3421 9.50532 7.94303 9.50131 8.66405C9.49977 8.94019 9.72238 9.16529 9.99852 9.16682C10.2747 9.16836 10.4998 8.94575 10.5013 8.66961C10.5054 7.94062 10.5243 7.42389 10.5963 7.03173C10.6657 6.65385 10.7772 6.43514 10.9395 6.27284C11.124 6.08833 11.383 5.96803 11.8722 5.90226C12.3758 5.83456 13.0432 5.8335 14.0001 5.8335H14.6668C15.6238 5.8335 16.2912 5.83456 16.7947 5.90226C17.2839 5.96803 17.543 6.08833 17.7275 6.27284C17.912 6.45735 18.0323 6.71639 18.098 7.20558C18.1657 7.70914 18.1668 8.37655 18.1668 9.3335V14.6668C18.1668 15.6238 18.1657 16.2912 18.098 16.7948C18.0323 17.2839 17.912 17.543 17.7275 17.7275C17.543 17.912 17.2839 18.0323 16.7947 18.0981C16.2912 18.1658 15.6238 18.1668 14.6668 18.1668H14.0001C13.0432 18.1668 12.3758 18.1658 11.8722 18.0981C11.383 18.0323 11.124 17.912 10.9395 17.7275C10.7772 17.5652 10.6657 17.3465 10.5963 16.9686C10.5243 16.5764 10.5054 16.0597 10.5013 15.3307C10.4998 15.0546 10.2747 14.832 9.99852 14.8335C9.72238 14.835 9.49977 15.0601 9.50131 15.3363C9.50532 16.0573 9.52258 16.6582 9.61277 17.1493C9.7056 17.6546 9.88242 18.0846 10.2324 18.4346C10.6337 18.8359 11.1389 19.0085 11.739 19.0891C12.317 19.1669 13.0518 19.1668 13.9636 19.1668H14.7034C15.6151 19.1668 16.35 19.1669 16.928 19.0891C17.5281 19.0085 18.0333 18.8359 18.4346 18.4346C18.8359 18.0333 19.0084 17.5281 19.0891 16.928C19.1668 16.35 19.1668 15.6151 19.1668 14.7034V9.29692C19.1668 8.38519 19.1668 7.65031 19.0891 7.07233C19.0084 6.47226 18.8359 5.96701 18.4346 5.56573C18.0333 5.16445 17.5281 4.99186 16.928 4.91118C16.35 4.83347 15.6151 4.83348 14.7034 4.8335H13.9636Z" fill="#D54406"/>
<path d="M5.33398 11.4995C5.05784 11.4995 4.83398 11.7234 4.83398 11.9995C4.83398 12.2757 5.05784 12.4995 5.33398 12.4995L13.3157 12.4995L12.0086 13.6199C11.7989 13.7996 11.7746 14.1152 11.9544 14.3249C12.1341 14.5346 12.4497 14.5589 12.6594 14.3791L14.9927 12.3791C15.1035 12.2841 15.1673 12.1455 15.1673 11.9995C15.1673 11.8535 15.1035 11.7149 14.9927 11.6199L12.6594 9.61988C12.4497 9.44017 12.1341 9.46445 11.9544 9.67412C11.7746 9.88378 11.7989 10.1994 12.0086 10.3791L13.3157 11.4995L5.33398 11.4995Z" fill="#D54406"/>
</g>
<defs>
<clipPath id="clip0_26_6374">
<rect x="4" y="4" width="16" height="16" rx="5" fill="white"/>
</clipPath>
</defs>
</svg>
