<svg width="28" height="28" viewBox="0 0 28 28" fill="none" xmlns="http://www.w3.org/2000/svg">
<path d="M20 14.5C20 14.6326 19.9241 14.7598 19.7891 14.8536C19.6541 14.9473 19.471 15 19.28 15H8.72C8.52904 15 8.34591 14.9473 8.21088 14.8536C8.07586 14.7598 8 14.6326 8 14.5C8 14.3674 8.07586 14.2402 8.21088 14.1464C8.34591 14.0527 8.52904 14 8.72 14H19.28C19.471 14 19.6541 14.0527 19.7891 14.1464C19.9241 14.2402 20 14.3674 20 14.5Z" fill="#AF6915"/>
<path d="M0.5 14C0.5 6.54416 6.54416 0.5 14 0.5C21.4558 0.5 27.5 6.54416 27.5 14C27.5 21.4558 21.4558 27.5 14 27.5C6.54416 27.5 0.5 21.4558 0.5 14Z" stroke="#AF6915"/>
</svg>
