<svg width="28" height="28" viewBox="0 0 28 28" fill="none" xmlns="http://www.w3.org/2000/svg">
<path d="M18.2857 14.7143H14.7143V18.2857C14.7143 18.4752 14.639 18.6568 14.5051 18.7908C14.3711 18.9247 14.1894 19 14 19C13.8106 19 13.6289 18.9247 13.4949 18.7908C13.361 18.6568 13.2857 18.4752 13.2857 18.2857V14.7143H9.71429C9.52485 14.7143 9.34316 14.639 9.20921 14.5051C9.07526 14.3711 9 14.1894 9 14C9 13.8106 9.07526 13.6289 9.20921 13.4949C9.34316 13.361 9.52485 13.2857 9.71429 13.2857H13.2857V9.71429C13.2857 9.52485 13.361 9.34316 13.4949 9.20921C13.6289 9.07525 13.8106 9 14 9C14.1894 9 14.3711 9.07525 14.5051 9.20921C14.639 9.34316 14.7143 9.52485 14.7143 9.71429V13.2857H18.2857C18.4752 13.2857 18.6568 13.361 18.7908 13.4949C18.9247 13.6289 19 13.8106 19 14C19 14.1894 18.9247 14.3711 18.7908 14.5051C18.6568 14.639 18.4752 14.7143 18.2857 14.7143Z" fill="#AF6915"/>
<path d="M0.5 14C0.5 6.54416 6.54416 0.5 14 0.5C21.4558 0.5 27.5 6.54416 27.5 14C27.5 21.4558 21.4558 27.5 14 27.5C6.54416 27.5 0.5 21.4558 0.5 14Z" stroke="#AF6915"/>
</svg>
