<svg width="15" height="14" viewBox="0 0 15 14" fill="none" xmlns="http://www.w3.org/2000/svg">
<path d="M11.875 7.28792C11.875 6.48292 12.5283 5.82959 13.3333 5.82959V5.24626C13.3333 2.91292 12.75 2.32959 10.4167 2.32959H4.58334C2.25001 2.32959 1.66667 2.91292 1.66667 5.24626V5.53792C2.47167 5.53792 3.12501 6.19126 3.12501 6.99626C3.12501 7.80126 2.47167 8.45459 1.66667 8.45459V8.74626C1.66667 11.0796 2.25001 11.6629 4.58334 11.6629H10.4167C12.75 11.6629 13.3333 11.0796 13.3333 8.74626C12.5283 8.74626 11.875 8.09292 11.875 7.28792Z" stroke="#5A10EF" stroke-linecap="round" stroke-linejoin="round"/>
<path d="M6.33333 2.32959L6.33333 11.6629" stroke="#5A10EF" stroke-linecap="round" stroke-linejoin="round" stroke-dasharray="2.92 2.92"/>
</svg>
